<?xml version="1.0" encoding="UTF-8" standalone="no"?>
<!-- Created with Inkscape (http://www.inkscape.org/) -->

<svg
   version="1.1"
   id="svg2"
   width="402.55997"
   height="317.44"
   viewBox="0 0 402.55997 317.44"
   sodipodi:docname="UseCaseDiagramVendingMachine3.drawio.pdf"
   xmlns:inkscape="http://www.inkscape.org/namespaces/inkscape"
   xmlns:sodipodi="http://sodipodi.sourceforge.net/DTD/sodipodi-0.dtd"
   xmlns="http://www.w3.org/2000/svg"
   xmlns:svg="http://www.w3.org/2000/svg">
  <defs
     id="defs6">
    <clipPath
       clipPathUnits="userSpaceOnUse"
       id="clipPath18">
      <path
         d="M 0,0 H 1258.3334 V 985.04376 H 0 Z"
         clip-rule="evenodd"
         id="path16" />
    </clipPath>
  </defs>
  <sodipodi:namedview
     id="namedview4"
     pagecolor="#ffffff"
     bordercolor="#000000"
     borderopacity="0.25"
     inkscape:showpageshadow="2"
     inkscape:pageopacity="0.0"
     inkscape:pagecheckerboard="0"
     inkscape:deskcolor="#d1d1d1"
     showgrid="false"
     inkscape:zoom="1.9023097"
     inkscape:cx="115.38605"
     inkscape:cy="173.73617"
     inkscape:window-width="1920"
     inkscape:window-height="1008"
     inkscape:window-x="0"
     inkscape:window-y="0"
     inkscape:window-maximized="1"
     inkscape:current-layer="g14">
    <inkscape:page
       x="0"
       y="0"
       id="page8"
       width="402.55997"
       height="317.44" />
  </sodipodi:namedview>
  <g
     id="g10"
     inkscape:groupmode="layer"
     inkscape:label="Page 1"
     transform="matrix(0.31999998,0,0,0.31999998,0,7.936e-6)">
    <g
       id="g12">
      <g
         id="g14"
         clip-path="url(#clipPath18)">
        <g
           id="g20"
           transform="matrix(3.0031822,0,0,3.0031822,1.5015911,1.5015911)">
          <path
             d="m 67,31 h 53.63"
             style="fill:none;stroke:#000000;stroke-width:1;stroke-linecap:butt;stroke-linejoin:miter;stroke-miterlimit:10;stroke-dasharray:none;stroke-opacity:1"
             id="path22" />
          <path
             d="m 125.88,31 -7,3.5 1.75,-3.5 -1.75,-3.5 z"
             style="fill:#000000;fill-opacity:1;fill-rule:nonzero;stroke:none"
             id="path24" />
          <path
             d="m 125.88,31 -7,3.5 1.75,-3.5 -1.75,-3.5 z"
             style="fill:none;stroke:#000000;stroke-width:1;stroke-linecap:butt;stroke-linejoin:miter;stroke-miterlimit:10;stroke-dasharray:none;stroke-opacity:1"
             id="path26" />
          <path
             d="m 59.5,8.5 c -4e-6,0.4924574 -0.04804,0.9801826 -0.144115,1.4631767 -0.09607,0.4829953 -0.238339,0.9519783 -0.426796,1.4069483 -0.188458,0.454971 -0.41948,0.887188 -0.693074,1.296651 -0.273594,0.409463 -0.584499,0.788305 -0.932716,1.136525 -0.348221,0.348219 -0.727062,0.659125 -1.136528,0.93272 -0.409462,0.273594 -0.841679,0.504619 -1.296654,0.693074 -0.454967,0.188455 -0.92395,0.330719 -1.406944,0.426793 C 52.980183,15.951961 52.492458,15.999999 52,16 51.507542,15.999999 51.019817,15.951961 50.536819,15.855888 50.053825,15.759814 49.584843,15.61755 49.129871,15.429095 48.6749,15.24064 48.24268,15.009615 47.833214,14.73602 47.423752,14.462426 47.04491,14.15152 46.696693,13.803301 46.348473,13.455081 46.037563,13.076239 45.763969,12.666776 45.490376,12.257313 45.25935,11.825096 45.070896,11.370125 44.882439,10.915155 44.740177,10.446172 44.644104,9.9631767 44.548035,9.4801826 44.5,8.9924574 44.5,8.5 c 0,-0.4924574 0.04803,-0.9801836 0.144104,-1.4631782 0.09607,-0.4829945 0.238335,-0.9519772 0.426792,-1.406948 0.188454,-0.4549709 0.41948,-0.887188 0.693077,-1.2966509 0.273594,-0.4094632 0.5845,-0.7883046 0.93272,-1.136524 C 47.04491,2.8484793 47.423752,2.5375719 47.833218,2.2639773 48.242683,1.990383 48.6749,1.7593584 49.129871,1.5709033 49.584843,1.3824483 50.053825,1.2401839 50.536819,1.1441103 51.019817,1.0480368 51.507542,1 52,1 c 0.492458,0 0.980183,0.048037 1.463173,0.1441103 0.482998,0.096074 0.951981,0.238338 1.406948,0.4267931 0.454975,0.1884551 0.887192,0.4194797 1.29665,0.6930741 0.409466,0.2735946 0.788307,0.5845018 1.136528,0.9327214 0.348217,0.3482194 0.659122,0.7270608 0.93272,1.136524 0.27359,0.4094629 0.504616,0.84168 0.693073,1.2966509 0.188454,0.4549708 0.330719,0.9239535 0.426793,1.406948 C 59.451958,7.5198164 59.499996,8.0075426 59.5,8.5 Z"
             style="fill:#ffffff;fill-opacity:1;fill-rule:nonzero;stroke:none"
             id="path28" />
          <path
             d="m 59.5,8.5 c -4e-6,0.4924574 -0.04804,0.9801826 -0.144115,1.4631767 -0.09607,0.4829953 -0.238339,0.9519783 -0.426796,1.4069483 -0.188458,0.454971 -0.41948,0.887188 -0.693074,1.296651 -0.273594,0.409463 -0.584499,0.788305 -0.932716,1.136525 -0.348221,0.348219 -0.727062,0.659125 -1.136528,0.93272 -0.409462,0.273594 -0.841679,0.504619 -1.296654,0.693074 -0.454967,0.188455 -0.92395,0.330719 -1.406944,0.426793 C 52.980183,15.951961 52.492458,15.999999 52,16 51.507542,15.999999 51.019817,15.951961 50.536819,15.855888 50.053825,15.759814 49.584843,15.61755 49.129871,15.429095 48.6749,15.24064 48.24268,15.009615 47.833214,14.73602 47.423752,14.462426 47.04491,14.15152 46.696693,13.803301 46.348473,13.455081 46.037563,13.076239 45.763969,12.666776 45.490376,12.257313 45.25935,11.825096 45.070896,11.370125 44.882439,10.915155 44.740177,10.446172 44.644104,9.9631767 44.548035,9.4801826 44.5,8.9924574 44.5,8.5 c 0,-0.4924574 0.04803,-0.9801836 0.144104,-1.4631782 0.09607,-0.4829945 0.238335,-0.9519772 0.426792,-1.406948 0.188454,-0.4549709 0.41948,-0.887188 0.693077,-1.2966509 0.273594,-0.4094632 0.5845,-0.7883046 0.93272,-1.136524 C 47.04491,2.8484793 47.423752,2.5375719 47.833218,2.2639773 48.242683,1.990383 48.6749,1.7593584 49.129871,1.5709033 49.584843,1.3824483 50.053825,1.2401839 50.536819,1.1441103 51.019817,1.0480368 51.507542,1 52,1 c 0.492458,0 0.980183,0.048037 1.463173,0.1441103 0.482998,0.096074 0.951981,0.238338 1.406948,0.4267931 0.454975,0.1884551 0.887192,0.4194797 1.29665,0.6930741 0.409466,0.2735946 0.788307,0.5845018 1.136528,0.9327214 0.348217,0.3482194 0.659122,0.7270608 0.93272,1.136524 0.27359,0.4094629 0.504616,0.84168 0.693073,1.2966509 0.188454,0.4549708 0.330719,0.9239535 0.426793,1.406948 C 59.451958,7.5198164 59.499996,8.0075426 59.5,8.5 Z"
             style="fill:none;stroke:#000000;stroke-width:1;stroke-linecap:butt;stroke-linejoin:miter;stroke-miterlimit:10;stroke-dasharray:none;stroke-opacity:1"
             id="path30" />
          <path
             d="M 52,16 V 41 M 52,21 H 37 m 15,0 H 67 M 52,41 37,61 M 52,41 67,61"
             style="fill:none;stroke:#000000;stroke-width:1;stroke-linecap:butt;stroke-linejoin:miter;stroke-miterlimit:10;stroke-dasharray:none;stroke-opacity:1"
             id="path32" />
        </g>
        <g
           id="g34"
           transform="scale(3.0031822)">
          <text
             xml:space="preserve"
             transform="translate(33.828125,79)"
             style="font-variant:normal;font-weight:normal;font-size:12px;font-family:ArialMT;-inkscape-font-specification:ArialMT;writing-mode:lr-tb;fill:#000000;fill-opacity:1;fill-rule:nonzero;stroke:none"
             id="text38"><tspan
               x="0 8.6660156 11.332031 13.998047 20.671875 27.345703 30.679688"
               y="0"
               sodipodi:role="line"
               id="tspan36">Cliente</tspan></text>
        </g>
        <g
           id="g40"
           transform="matrix(3.0031822,0,0,3.0031822,1.5015911,1.5015911)">
          <path
             d="m 67,151 h 53.63"
             style="fill:none;stroke:#000000;stroke-width:1;stroke-linecap:butt;stroke-linejoin:miter;stroke-miterlimit:10;stroke-dasharray:none;stroke-opacity:1"
             id="path42" />
          <path
             d="m 125.88,151 -7,3.5 1.75,-3.5 -1.75,-3.5 z"
             style="fill:#000000;fill-opacity:1;fill-rule:nonzero;stroke:none"
             id="path44" />
          <path
             d="m 125.88,151 -7,3.5 1.75,-3.5 -1.75,-3.5 z"
             style="fill:none;stroke:#000000;stroke-width:1;stroke-linecap:butt;stroke-linejoin:miter;stroke-miterlimit:10;stroke-dasharray:none;stroke-opacity:1"
             id="path46" />
          <path
             d="m 59.5,128.5 c -4e-6,0.49245 -0.04804,0.98018 -0.144115,1.46316 -0.09607,0.48299 -0.238339,0.95199 -0.426796,1.40696 -0.188458,0.45497 -0.41948,0.88719 -0.693074,1.29664 -0.273594,0.40947 -0.584499,0.7883 -0.932716,1.13652 -0.348221,0.34822 -0.727062,0.65912 -1.136528,0.93271 -0.409462,0.27361 -0.841679,0.50463 -1.296654,0.69309 -0.454967,0.18846 -0.92395,0.33072 -1.406944,0.42678 C 52.980183,135.95195 52.492458,135.99998 52,136 c -0.492458,-2e-5 -0.980183,-0.048 -1.463181,-0.14414 -0.482994,-0.0961 -0.951976,-0.23832 -1.406948,-0.42678 -0.454971,-0.18846 -0.887191,-0.41948 -1.296657,-0.69309 -0.409462,-0.27359 -0.788304,-0.58449 -1.136521,-0.93271 -0.34822,-0.34822 -0.65913,-0.72705 -0.932724,-1.13652 -0.273593,-0.40945 -0.504619,-0.84167 -0.693073,-1.29664 -0.188457,-0.45497 -0.330719,-0.92397 -0.426792,-1.40696 C 44.548035,129.48018 44.5,128.99245 44.5,128.5 c 0,-0.49246 0.04803,-0.98019 0.144104,-1.46319 0.09607,-0.483 0.238335,-0.95199 0.426792,-1.40695 0.188454,-0.45497 0.41948,-0.88719 0.693077,-1.29665 0.273594,-0.40946 0.5845,-0.7883 0.93272,-1.13652 0.348217,-0.34822 0.727059,-0.65913 1.136525,-0.93273 0.409465,-0.27359 0.841682,-0.50461 1.296653,-0.69307 0.454972,-0.18845 0.923954,-0.33071 1.406948,-0.42678 C 51.019817,121.04804 51.507542,121 52,121 c 0.492458,0 0.980183,0.048 1.463173,0.1441 0.482998,0.0961 0.951981,0.23834 1.406948,0.42679 0.454975,0.18846 0.887192,0.41948 1.29665,0.69307 0.409466,0.2736 0.788307,0.58451 1.136528,0.93273 0.348217,0.34822 0.659122,0.72706 0.93272,1.13652 0.27359,0.40947 0.504616,0.84168 0.693073,1.29666 0.188454,0.45496 0.330719,0.92395 0.426793,1.40695 0.09607,0.48299 0.144111,0.97072 0.144115,1.46318 z"
             style="fill:#ffffff;fill-opacity:1;fill-rule:nonzero;stroke:none"
             id="path48" />
          <path
             d="m 59.5,128.5 c -4e-6,0.49245 -0.04804,0.98018 -0.144115,1.46316 -0.09607,0.48299 -0.238339,0.95199 -0.426796,1.40696 -0.188458,0.45497 -0.41948,0.88719 -0.693074,1.29664 -0.273594,0.40947 -0.584499,0.7883 -0.932716,1.13652 -0.348221,0.34822 -0.727062,0.65912 -1.136528,0.93271 -0.409462,0.27361 -0.841679,0.50463 -1.296654,0.69309 -0.454967,0.18846 -0.92395,0.33072 -1.406944,0.42678 C 52.980183,135.95195 52.492458,135.99998 52,136 c -0.492458,-2e-5 -0.980183,-0.048 -1.463181,-0.14414 -0.482994,-0.0961 -0.951976,-0.23832 -1.406948,-0.42678 -0.454971,-0.18846 -0.887191,-0.41948 -1.296657,-0.69309 -0.409462,-0.27359 -0.788304,-0.58449 -1.136521,-0.93271 -0.34822,-0.34822 -0.65913,-0.72705 -0.932724,-1.13652 -0.273593,-0.40945 -0.504619,-0.84167 -0.693073,-1.29664 -0.188457,-0.45497 -0.330719,-0.92397 -0.426792,-1.40696 C 44.548035,129.48018 44.5,128.99245 44.5,128.5 c 0,-0.49246 0.04803,-0.98019 0.144104,-1.46319 0.09607,-0.483 0.238335,-0.95199 0.426792,-1.40695 0.188454,-0.45497 0.41948,-0.88719 0.693077,-1.29665 0.273594,-0.40946 0.5845,-0.7883 0.93272,-1.13652 0.348217,-0.34822 0.727059,-0.65913 1.136525,-0.93273 0.409465,-0.27359 0.841682,-0.50461 1.296653,-0.69307 0.454972,-0.18845 0.923954,-0.33071 1.406948,-0.42678 C 51.019817,121.04804 51.507542,121 52,121 c 0.492458,0 0.980183,0.048 1.463173,0.1441 0.482998,0.0961 0.951981,0.23834 1.406948,0.42679 0.454975,0.18846 0.887192,0.41948 1.29665,0.69307 0.409466,0.2736 0.788307,0.58451 1.136528,0.93273 0.348217,0.34822 0.659122,0.72706 0.93272,1.13652 0.27359,0.40947 0.504616,0.84168 0.693073,1.29666 0.188454,0.45496 0.330719,0.92395 0.426793,1.40695 0.09607,0.48299 0.144111,0.97072 0.144115,1.46318 z"
             style="fill:none;stroke:#000000;stroke-width:1;stroke-linecap:butt;stroke-linejoin:miter;stroke-miterlimit:10;stroke-dasharray:none;stroke-opacity:1"
             id="path50" />
          <path
             d="m 52,136 v 25 m 0,-20 H 37 m 15,0 h 15 m -15,20 -15,20 m 15,-20 15,20"
             style="fill:none;stroke:#000000;stroke-width:1;stroke-linecap:butt;stroke-linejoin:miter;stroke-miterlimit:10;stroke-dasharray:none;stroke-opacity:1"
             id="path52" />
        </g>
        <g
           id="g54"
           transform="scale(3.0031822)">
          <text
             xml:space="preserve"
             transform="translate(1.140625,199)"
             style="font-variant:normal;font-weight:normal;font-size:12px;font-family:ArialMT;-inkscape-font-specification:ArialMT;writing-mode:lr-tb;fill:#000000;fill-opacity:1;fill-rule:nonzero;stroke:none"
             id="text58"><tspan
               x="0 8.0039062 14.677734 21.351562 28.025391 31.359375 38.033203 41.367188 48.697266 55.371094 59.367188 66.041016 72.714844 78.714844 85.388672 92.0625 98.736328"
               y="0"
               sodipodi:role="line"
               id="tspan56">Agente Fornecedor</tspan></text>
        </g>
        <g
           id="g60"
           transform="matrix(3.0031822,0,0,3.0031822,1.5015911,1.5015911)">
          <path
             d="m 67,271 h 53.63"
             style="fill:none;stroke:#000000;stroke-width:1;stroke-linecap:butt;stroke-linejoin:miter;stroke-miterlimit:10;stroke-dasharray:none;stroke-opacity:1"
             id="path62" />
          <path
             d="m 125.88,271 -7,3.5 1.75,-3.5 -1.75,-3.5 z"
             style="fill:#000000;fill-opacity:1;fill-rule:nonzero;stroke:none"
             id="path64" />
          <path
             d="m 125.88,271 -7,3.5 1.75,-3.5 -1.75,-3.5 z"
             style="fill:none;stroke:#000000;stroke-width:1;stroke-linecap:butt;stroke-linejoin:miter;stroke-miterlimit:10;stroke-dasharray:none;stroke-opacity:1"
             id="path66" />
          <path
             d="m 59.5,248.5 c -4e-6,0.49245 -0.04804,0.98016 -0.144115,1.46315 -0.09607,0.483 -0.238339,0.95198 -0.426796,1.40695 -0.188458,0.45497 -0.41948,0.88719 -0.693074,1.29666 -0.273594,0.40947 -0.584499,0.78832 -0.932716,1.13654 -0.348221,0.34822 -0.727062,0.65912 -1.136528,0.93271 -0.409462,0.27357 -0.841679,0.50459 -1.296654,0.69305 -0.454967,0.18846 -0.92395,0.33072 -1.406944,0.42681 C 52.980183,255.95193 52.492458,255.99998 52,256 c -0.492458,-2e-5 -0.980183,-0.0481 -1.463181,-0.14413 -0.482994,-0.0961 -0.951976,-0.23835 -1.406948,-0.42681 -0.454971,-0.18846 -0.887191,-0.41948 -1.296657,-0.69305 -0.409462,-0.27359 -0.788304,-0.58449 -1.136521,-0.93271 -0.34822,-0.34822 -0.65913,-0.72707 -0.932724,-1.13652 -0.273593,-0.40947 -0.504619,-0.84171 -0.693073,-1.29668 -0.188457,-0.45497 -0.330719,-0.92395 -0.426792,-1.40695 C 44.548035,249.48016 44.5,248.99245 44.5,248.5 c 0,-0.49246 0.04803,-0.98019 0.144104,-1.4632 0.09607,-0.483 0.238335,-0.95199 0.426792,-1.40696 0.188454,-0.45497 0.41948,-0.88719 0.693077,-1.29666 0.273594,-0.40946 0.5845,-0.78829 0.93272,-1.13651 0.348217,-0.34822 0.727059,-0.65913 1.136525,-0.93272 0.409465,-0.27361 0.841682,-0.50463 1.296653,-0.69307 0.454972,-0.18846 0.923954,-0.33072 1.406948,-0.42678 C 51.019817,241.04803 51.507542,241 52,241 c 0.492458,0 0.980183,0.048 1.463173,0.1441 0.482998,0.0961 0.951981,0.23832 1.406948,0.42678 0.454975,0.18844 0.887192,0.41946 1.29665,0.69307 0.409466,0.27359 0.788307,0.5845 1.136528,0.93272 0.348217,0.34822 0.659122,0.72705 0.93272,1.13651 0.27359,0.40947 0.504616,0.84169 0.693073,1.29666 0.188454,0.45497 0.330719,0.92396 0.426793,1.40696 0.09607,0.48301 0.144111,0.97074 0.144115,1.4632 z"
             style="fill:#ffffff;fill-opacity:1;fill-rule:nonzero;stroke:none"
             id="path68" />
          <path
             d="m 59.5,248.5 c -4e-6,0.49245 -0.04804,0.98016 -0.144115,1.46315 -0.09607,0.483 -0.238339,0.95198 -0.426796,1.40695 -0.188458,0.45497 -0.41948,0.88719 -0.693074,1.29666 -0.273594,0.40947 -0.584499,0.78832 -0.932716,1.13654 -0.348221,0.34822 -0.727062,0.65912 -1.136528,0.93271 -0.409462,0.27357 -0.841679,0.50459 -1.296654,0.69305 -0.454967,0.18846 -0.92395,0.33072 -1.406944,0.42681 C 52.980183,255.95193 52.492458,255.99998 52,256 c -0.492458,-2e-5 -0.980183,-0.0481 -1.463181,-0.14413 -0.482994,-0.0961 -0.951976,-0.23835 -1.406948,-0.42681 -0.454971,-0.18846 -0.887191,-0.41948 -1.296657,-0.69305 -0.409462,-0.27359 -0.788304,-0.58449 -1.136521,-0.93271 -0.34822,-0.34822 -0.65913,-0.72707 -0.932724,-1.13652 -0.273593,-0.40947 -0.504619,-0.84171 -0.693073,-1.29668 -0.188457,-0.45497 -0.330719,-0.92395 -0.426792,-1.40695 C 44.548035,249.48016 44.5,248.99245 44.5,248.5 c 0,-0.49246 0.04803,-0.98019 0.144104,-1.4632 0.09607,-0.483 0.238335,-0.95199 0.426792,-1.40696 0.188454,-0.45497 0.41948,-0.88719 0.693077,-1.29666 0.273594,-0.40946 0.5845,-0.78829 0.93272,-1.13651 0.348217,-0.34822 0.727059,-0.65913 1.136525,-0.93272 0.409465,-0.27361 0.841682,-0.50463 1.296653,-0.69307 0.454972,-0.18846 0.923954,-0.33072 1.406948,-0.42678 C 51.019817,241.04803 51.507542,241 52,241 c 0.492458,0 0.980183,0.048 1.463173,0.1441 0.482998,0.0961 0.951981,0.23832 1.406948,0.42678 0.454975,0.18844 0.887192,0.41946 1.29665,0.69307 0.409466,0.27359 0.788307,0.5845 1.136528,0.93272 0.348217,0.34822 0.659122,0.72705 0.93272,1.13651 0.27359,0.40947 0.504616,0.84169 0.693073,1.29666 0.188454,0.45497 0.330719,0.92396 0.426793,1.40696 0.09607,0.48301 0.144111,0.97074 0.144115,1.4632 z"
             style="fill:none;stroke:#000000;stroke-width:1;stroke-linecap:butt;stroke-linejoin:miter;stroke-miterlimit:10;stroke-dasharray:none;stroke-opacity:1"
             id="path70" />
          <path
             d="m 52,256 v 25 m 0,-20 H 37 m 15,0 h 15 m -15,20 -15,20 m 15,-20 15,20"
             style="fill:none;stroke:#000000;stroke-width:1;stroke-linecap:butt;stroke-linejoin:miter;stroke-miterlimit:10;stroke-dasharray:none;stroke-opacity:1"
             id="path72" />
        </g>
        <g
           id="g74"
           transform="scale(3.0031822)">
          <text
             xml:space="preserve"
             transform="translate(38.15625,322)"
             style="font-variant:normal;font-weight:normal;font-size:12px;font-family:ArialMT;-inkscape-font-specification:ArialMT;writing-mode:lr-tb;fill:#000000;fill-opacity:1;fill-rule:nonzero;stroke:none"
             id="text78"><tspan
               x="0 8.6660156 15.339844 22.013672"
               y="0"
               sodipodi:role="line"
               id="tspan76">Dono</tspan></text>
        </g>
        <g
           id="g80"
           transform="matrix(3.0031822,0,0,3.0031822,1.5015911,1.5015911)">
          <path
             d="m 227,31 c 2e-5,0.818781 -0.0803,1.635593 -0.24075,2.450432 -0.16051,0.814834 -0.40052,1.623775 -0.72,2.426822 -0.31948,0.803051 -0.71689,1.596337 -1.19225,2.37986 -0.47536,0.78352 -1.02638,1.553509 -1.65305,2.309964 -0.62666,0.756458 -1.32595,1.495735 -2.0979,2.217834 -0.77194,0.722103 -1.6128,1.42355 -2.52258,2.10434 -0.90977,0.680793 -1.88408,1.337654 -2.92294,1.970581 -1.03887,0.632923 -2.13725,1.238865 -3.2952,1.817833 -1.15793,0.578968 -2.36981,1.128166 -3.63566,1.647594 -1.26587,0.519428 -2.57959,1.006584 -3.94118,1.461472 -1.36159,0.454891 -2.76447,0.875324 -4.20867,1.261295 -1.44421,0.385967 -2.92277,0.735619 -4.43568,1.048954 -1.51291,0.313335 -3.05289,0.588844 -4.61992,0.826523 -1.56706,0.237682 -3.15362,0.43639 -4.75972,0.596123 -1.60609,0.159736 -3.22397,0.279731 -4.85365,0.359989 C 180.27118,55.959869 178.63756,55.999996 177,56 c -1.63756,-4e-6 -3.27118,-0.04013 -4.90085,-0.120388 -1.62968,-0.08025 -3.24757,-0.200249 -4.85368,-0.359985 -1.6061,-0.159733 -3.19266,-0.358441 -4.75971,-0.596119 -1.56704,-0.237683 -3.10702,-0.513192 -4.61995,-0.826527 -1.51289,-0.313335 -2.99145,-0.662987 -4.43565,-1.048958 -1.4442,-0.385967 -2.84709,-0.8064 -4.20868,-1.261291 -1.36156,-0.454888 -2.67528,-0.942044 -3.94113,-1.461468 -1.26585,-0.519428 -2.47775,-1.06863 -3.6357,-1.647598 -1.15793,-0.578968 -2.25631,-1.184914 -3.29518,-1.817837 -1.03886,-0.632923 -2.0132,-1.289784 -2.92297,-1.970577 -0.90978,-0.68079 -1.75064,-1.382237 -2.52259,-2.10434 -0.77194,-0.722099 -1.47125,-1.461376 -2.09791,-2.217834 -0.62666,-0.756455 -1.17767,-1.526444 -1.65303,-2.309964 -0.47536,-0.783523 -0.87277,-1.576809 -1.19225,-2.37986 -0.31946,-0.803047 -0.55944,-1.611988 -0.71996,-2.426822 C 127.08026,32.635593 127.00001,31.818781 127,31 c 1e-5,-0.818779 0.0803,-1.635588 0.24077,-2.450426 0.16051,-0.814839 0.40049,-1.623783 0.71995,-2.426832 0.31948,-0.803047 0.71689,-1.596333 1.19225,-2.379858 0.47536,-0.783526 1.02637,-1.553515 1.65303,-2.309971 0.62666,-0.756455 1.32597,-1.495732 2.09791,-2.217833 0.77195,-0.722101 1.61281,-1.423546 2.52259,-2.104337 0.90977,-0.680792 1.88411,-1.33765 2.92297,-1.970575 1.03887,-0.632926 2.13725,-1.238871 3.29518,-1.817837 1.15795,-0.578966 2.36985,-1.128162 3.6357,-1.647591 1.26585,-0.519429 2.57957,-1.00659 3.94113,-1.46148 1.36159,-0.4548906 2.76447,-0.8753207 4.20866,-1.2612909 1.44422,-0.385971 2.92278,-0.7356233 4.43567,-1.0489578 1.51293,-0.3133335 3.05291,-0.58884 4.61995,-0.8265199 1.56705,-0.237679 3.15361,-0.4363871 4.75971,-0.5961233 1.60611,-0.1597356 3.224,-0.2797308 4.85368,-0.3599858 C 173.72882,6.0401278 175.36244,6.0000005 177,6 c 1.63756,5e-7 3.27118,0.040128 4.90085,0.1203823 1.62968,0.080255 3.24756,0.2002502 4.85365,0.3599858 1.6061,0.1597362 3.19266,0.3584443 4.75972,0.5961237 1.56703,0.2376795 3.10701,0.513186 4.61992,0.8265195 1.51291,0.3133345 2.99147,0.6629868 4.43568,1.0489578 1.4442,0.3859702 2.84708,0.8064003 4.20867,1.2612909 1.36159,0.45489 2.67531,0.942051 3.94118,1.46148 1.26585,0.519429 2.47773,1.068625 3.63566,1.647591 1.15795,0.578966 2.25633,1.184911 3.2952,1.817836 1.03886,0.632926 2.01317,1.289784 2.92294,1.970576 0.90978,0.680791 1.75064,1.382238 2.52258,2.104339 0.77195,0.722099 1.47124,1.461376 2.0979,2.217831 0.62667,0.756456 1.17769,1.526445 1.65305,2.309971 0.47536,0.783525 0.87276,1.576811 1.19223,2.379858 0.3195,0.803049 0.55951,1.611993 0.72002,2.426832 C 226.91975,29.364412 227.00002,30.181221 227,31 Z"
             style="fill:#ffffff;fill-opacity:1;fill-rule:nonzero;stroke:none"
             id="path82" />
          <path
             d="m 227,31 c 2e-5,0.818781 -0.0803,1.635593 -0.24075,2.450432 -0.16051,0.814834 -0.40052,1.623775 -0.72,2.426822 -0.31948,0.803051 -0.71689,1.596337 -1.19225,2.37986 -0.47536,0.78352 -1.02638,1.553509 -1.65305,2.309964 -0.62666,0.756458 -1.32595,1.495735 -2.0979,2.217834 -0.77194,0.722103 -1.6128,1.42355 -2.52258,2.10434 -0.90977,0.680793 -1.88408,1.337654 -2.92294,1.970581 -1.03887,0.632923 -2.13725,1.238865 -3.2952,1.817833 -1.15793,0.578968 -2.36981,1.128166 -3.63566,1.647594 -1.26587,0.519428 -2.57959,1.006584 -3.94118,1.461472 -1.36159,0.454891 -2.76447,0.875324 -4.20867,1.261295 -1.44421,0.385967 -2.92277,0.735619 -4.43568,1.048954 -1.51291,0.313335 -3.05289,0.588844 -4.61992,0.826523 -1.56706,0.237682 -3.15362,0.43639 -4.75972,0.596123 -1.60609,0.159736 -3.22397,0.279731 -4.85365,0.359989 C 180.27118,55.959869 178.63756,55.999996 177,56 c -1.63756,-4e-6 -3.27118,-0.04013 -4.90085,-0.120388 -1.62968,-0.08025 -3.24757,-0.200249 -4.85368,-0.359985 -1.6061,-0.159733 -3.19266,-0.358441 -4.75971,-0.596119 -1.56704,-0.237683 -3.10702,-0.513192 -4.61995,-0.826527 -1.51289,-0.313335 -2.99145,-0.662987 -4.43565,-1.048958 -1.4442,-0.385967 -2.84709,-0.8064 -4.20868,-1.261291 -1.36156,-0.454888 -2.67528,-0.942044 -3.94113,-1.461468 -1.26585,-0.519428 -2.47775,-1.06863 -3.6357,-1.647598 -1.15793,-0.578968 -2.25631,-1.184914 -3.29518,-1.817837 -1.03886,-0.632923 -2.0132,-1.289784 -2.92297,-1.970577 -0.90978,-0.68079 -1.75064,-1.382237 -2.52259,-2.10434 -0.77194,-0.722099 -1.47125,-1.461376 -2.09791,-2.217834 -0.62666,-0.756455 -1.17767,-1.526444 -1.65303,-2.309964 -0.47536,-0.783523 -0.87277,-1.576809 -1.19225,-2.37986 -0.31946,-0.803047 -0.55944,-1.611988 -0.71996,-2.426822 C 127.08026,32.635593 127.00001,31.818781 127,31 c 1e-5,-0.818779 0.0803,-1.635588 0.24077,-2.450426 0.16051,-0.814839 0.40049,-1.623783 0.71995,-2.426832 0.31948,-0.803047 0.71689,-1.596333 1.19225,-2.379858 0.47536,-0.783526 1.02637,-1.553515 1.65303,-2.309971 0.62666,-0.756455 1.32597,-1.495732 2.09791,-2.217833 0.77195,-0.722101 1.61281,-1.423546 2.52259,-2.104337 0.90977,-0.680792 1.88411,-1.33765 2.92297,-1.970575 1.03887,-0.632926 2.13725,-1.238871 3.29518,-1.817837 1.15795,-0.578966 2.36985,-1.128162 3.6357,-1.647591 1.26585,-0.519429 2.57957,-1.00659 3.94113,-1.46148 1.36159,-0.4548906 2.76447,-0.8753207 4.20866,-1.2612909 1.44422,-0.385971 2.92278,-0.7356233 4.43567,-1.0489578 1.51293,-0.3133335 3.05291,-0.58884 4.61995,-0.8265199 1.56705,-0.237679 3.15361,-0.4363871 4.75971,-0.5961233 1.60611,-0.1597356 3.224,-0.2797308 4.85368,-0.3599858 C 173.72882,6.0401278 175.36244,6.0000005 177,6 c 1.63756,5e-7 3.27118,0.040128 4.90085,0.1203823 1.62968,0.080255 3.24756,0.2002502 4.85365,0.3599858 1.6061,0.1597362 3.19266,0.3584443 4.75972,0.5961237 1.56703,0.2376795 3.10701,0.513186 4.61992,0.8265195 1.51291,0.3133345 2.99147,0.6629868 4.43568,1.0489578 1.4442,0.3859702 2.84708,0.8064003 4.20867,1.2612909 1.36159,0.45489 2.67531,0.942051 3.94118,1.46148 1.26585,0.519429 2.47773,1.068625 3.63566,1.647591 1.15795,0.578966 2.25633,1.184911 3.2952,1.817836 1.03886,0.632926 2.01317,1.289784 2.92294,1.970576 0.90978,0.680791 1.75064,1.382238 2.52258,2.104339 0.77195,0.722099 1.47124,1.461376 2.0979,2.217831 0.62667,0.756456 1.17769,1.526445 1.65305,2.309971 0.47536,0.783525 0.87276,1.576811 1.19223,2.379858 0.3195,0.803049 0.55951,1.611993 0.72002,2.426832 C 226.91975,29.364412 227.00002,30.181221 227,31 Z"
             style="fill:none;stroke:#000000;stroke-width:1;stroke-linecap:butt;stroke-linejoin:miter;stroke-miterlimit:10;stroke-dasharray:none;stroke-opacity:1"
             id="path84" />
        </g>
        <g
           id="g86"
           transform="scale(3.0031822)">
          <text
             xml:space="preserve"
             transform="translate(133.96875,35)"
             style="font-variant:normal;font-weight:normal;font-size:12px;font-family:ArialMT;-inkscape-font-specification:ArialMT;writing-mode:lr-tb;fill:#000000;fill-opacity:1;fill-rule:nonzero;stroke:none"
             id="text90"><tspan
               x="0 8.6660156 15.339844 25.335938 32.009766 36.005859 42.679688 46.675781 50.009766 56.683594 63.357422 70.03125 72.697266 79.371094"
               y="0"
               sodipodi:role="line"
               id="tspan88">Comprar bebida</tspan></text>
        </g>
        <g
           id="g92"
           transform="matrix(3.0031822,0,0,3.0031822,1.5015911,1.5015911)">
          <path
             d="m 227,150.5 h 12 v 1 h -12 m 24,-1 h 12 v 1 h -12 m 24,-1 h 12 v 1 h -12 m 24,-1 h 11.63 v 1 H 299"
             style="fill:#000000;fill-opacity:1;fill-rule:nonzero;stroke:none"
             id="path94" />
          <path
             d="m 315.88,151 -7,3.5 1.75,-3.5 -1.75,-3.5 z"
             style="fill:#000000;fill-opacity:1;fill-rule:nonzero;stroke:none"
             id="path96" />
          <path
             d="m 315.88,151 -7,3.5 1.75,-3.5 -1.75,-3.5 z"
             style="fill:none;stroke:#000000;stroke-width:1;stroke-linecap:butt;stroke-linejoin:miter;stroke-miterlimit:10;stroke-dasharray:none;stroke-opacity:1"
             id="path98" />
        </g>
        <g
           id="g100"
           transform="scale(3.0031822)">
          <path
             d="m 241,136 h 61 v 13 h -61 z"
             style="fill:#ffffff;fill-opacity:1;fill-rule:nonzero;stroke:none"
             id="path102" />
          <text
             xml:space="preserve"
             transform="translate(241.21875,146)"
             style="font-variant:normal;font-weight:normal;font-size:11px;font-family:ArialMT;-inkscape-font-specification:ArialMT;writing-mode:lr-tb;fill:#000000;fill-opacity:1;fill-rule:nonzero;stroke:none"
             id="text106"><tspan
               x="0 6.4238281 12.847656 15.291504 21.40918 26.90918 29.353027 35.470703 41.588379 47.706055 54.129883"
               y="0"
               sodipodi:role="line"
               id="tspan104">&lt;&lt;include&gt;&gt;</tspan></text>
        </g>
        <g
           id="g108"
           transform="matrix(3.0031822,0,0,3.0031822,1.5015911,1.5015911)">
          <path
             d="m 227,151 c 2e-5,0.81879 -0.0803,1.63559 -0.24075,2.45042 -0.16051,0.81484 -0.40052,1.62377 -0.72,2.42681 -0.31948,0.80305 -0.71689,1.59636 -1.19225,2.37988 -0.47536,0.78352 -1.02638,1.55351 -1.65305,2.30997 -0.62666,0.75645 -1.32595,1.49574 -2.0979,2.21783 -0.77194,0.72211 -1.6128,1.42356 -2.52258,2.10434 -0.90977,0.6808 -1.88408,1.33766 -2.92294,1.9706 -1.03887,0.63292 -2.13725,1.23886 -3.2952,1.81782 -1.15793,0.57897 -2.36981,1.12818 -3.63566,1.6476 -1.26587,0.51943 -2.57959,1.00659 -3.94118,1.46147 -1.36159,0.4549 -2.76447,0.87532 -4.20867,1.26129 -1.44421,0.38598 -2.92277,0.73563 -4.43568,1.04895 -1.51291,0.31334 -3.05289,0.58884 -4.61992,0.82653 -1.56706,0.23768 -3.15362,0.43638 -4.75972,0.59611 -1.60609,0.15975 -3.22397,0.27974 -4.85365,0.35999 C 180.27118,175.95987 178.63756,176 177,176 c -1.63756,0 -3.27118,-0.0401 -4.90085,-0.12039 -1.62968,-0.0803 -3.24757,-0.20024 -4.85368,-0.35999 -1.6061,-0.15973 -3.19266,-0.35844 -4.75971,-0.59613 -1.56704,-0.23767 -3.10702,-0.51317 -4.61995,-0.82651 -1.51289,-0.31332 -2.99145,-0.66297 -4.43565,-1.04895 -1.4442,-0.38597 -2.84709,-0.80639 -4.20868,-1.26129 -1.36156,-0.45488 -2.67528,-0.94204 -3.94113,-1.46147 -1.26585,-0.51942 -2.47775,-1.06863 -3.6357,-1.6476 -1.15793,-0.57896 -2.25631,-1.1849 -3.29518,-1.81782 -1.03886,-0.63294 -2.0132,-1.2898 -2.92297,-1.9706 -0.90978,-0.68078 -1.75064,-1.38223 -2.52259,-2.10434 -0.77194,-0.72209 -1.47125,-1.46138 -2.09791,-2.21783 -0.62666,-0.75646 -1.17767,-1.52645 -1.65303,-2.30997 -0.47536,-0.78352 -0.87277,-1.57683 -1.19225,-2.37988 -0.31946,-0.80304 -0.55944,-1.61197 -0.71996,-2.42681 C 127.08026,152.63559 127.00001,151.81879 127,151 c 1e-5,-0.81877 0.0803,-1.63559 0.24077,-2.45042 0.16051,-0.81484 0.40049,-1.6238 0.71995,-2.42685 0.31948,-0.80304 0.71689,-1.59633 1.19225,-2.37986 0.47536,-0.78352 1.02637,-1.55351 1.65303,-2.30998 0.62666,-0.75645 1.32597,-1.49573 2.09791,-2.21782 0.77195,-0.72209 1.61281,-1.42354 2.52259,-2.10434 0.90977,-0.68078 1.88411,-1.33764 2.92297,-1.97056 1.03887,-0.63294 2.13725,-1.23888 3.29518,-1.81784 1.15795,-0.57897 2.36985,-1.12816 3.6357,-1.6476 1.26585,-0.51943 2.57957,-1.00658 3.94113,-1.46147 1.36159,-0.45488 2.76447,-0.87532 4.20866,-1.2613 1.44422,-0.38597 2.92278,-0.73562 4.43567,-1.04896 1.51293,-0.31332 3.05291,-0.58883 4.61995,-0.82651 1.56705,-0.23768 3.15361,-0.43638 4.75971,-0.59612 1.60611,-0.15974 3.224,-0.27973 4.85368,-0.35999 1.62967,-0.0802 3.26329,-0.12037 4.90085,-0.12038 1.63756,1e-5 3.27118,0.0401 4.90085,0.12039 1.62968,0.0803 3.24756,0.20024 4.85365,0.35998 1.6061,0.15974 3.19266,0.35845 4.75972,0.59613 1.56703,0.23768 3.10701,0.51318 4.61992,0.8265 1.51291,0.31334 2.99147,0.66299 4.43568,1.04896 1.4442,0.38598 2.84708,0.80642 4.20867,1.2613 1.36159,0.45489 2.67531,0.94204 3.94118,1.46147 1.26585,0.51944 2.47773,1.06863 3.63566,1.6476 1.15795,0.57896 2.25633,1.1849 3.2952,1.81784 1.03886,0.63292 2.01317,1.28978 2.92294,1.97056 0.90978,0.6808 1.75064,1.38225 2.52258,2.10434 0.77195,0.72209 1.47124,1.46137 2.0979,2.21782 0.62667,0.75647 1.17769,1.52646 1.65305,2.30998 0.47536,0.78353 0.87276,1.57682 1.19223,2.37986 0.3195,0.80305 0.55951,1.61201 0.72002,2.42685 0.1605,0.81483 0.24077,1.63165 0.24075,2.45042 z"
             style="fill:#ffffff;fill-opacity:1;fill-rule:nonzero;stroke:none"
             id="path110" />
          <path
             d="m 227,151 c 2e-5,0.81879 -0.0803,1.63559 -0.24075,2.45042 -0.16051,0.81484 -0.40052,1.62377 -0.72,2.42681 -0.31948,0.80305 -0.71689,1.59636 -1.19225,2.37988 -0.47536,0.78352 -1.02638,1.55351 -1.65305,2.30997 -0.62666,0.75645 -1.32595,1.49574 -2.0979,2.21783 -0.77194,0.72211 -1.6128,1.42356 -2.52258,2.10434 -0.90977,0.6808 -1.88408,1.33766 -2.92294,1.9706 -1.03887,0.63292 -2.13725,1.23886 -3.2952,1.81782 -1.15793,0.57897 -2.36981,1.12818 -3.63566,1.6476 -1.26587,0.51943 -2.57959,1.00659 -3.94118,1.46147 -1.36159,0.4549 -2.76447,0.87532 -4.20867,1.26129 -1.44421,0.38598 -2.92277,0.73563 -4.43568,1.04895 -1.51291,0.31334 -3.05289,0.58884 -4.61992,0.82653 -1.56706,0.23768 -3.15362,0.43638 -4.75972,0.59611 -1.60609,0.15975 -3.22397,0.27974 -4.85365,0.35999 C 180.27118,175.95987 178.63756,176 177,176 c -1.63756,0 -3.27118,-0.0401 -4.90085,-0.12039 -1.62968,-0.0803 -3.24757,-0.20024 -4.85368,-0.35999 -1.6061,-0.15973 -3.19266,-0.35844 -4.75971,-0.59613 -1.56704,-0.23767 -3.10702,-0.51317 -4.61995,-0.82651 -1.51289,-0.31332 -2.99145,-0.66297 -4.43565,-1.04895 -1.4442,-0.38597 -2.84709,-0.80639 -4.20868,-1.26129 -1.36156,-0.45488 -2.67528,-0.94204 -3.94113,-1.46147 -1.26585,-0.51942 -2.47775,-1.06863 -3.6357,-1.6476 -1.15793,-0.57896 -2.25631,-1.1849 -3.29518,-1.81782 -1.03886,-0.63294 -2.0132,-1.2898 -2.92297,-1.9706 -0.90978,-0.68078 -1.75064,-1.38223 -2.52259,-2.10434 -0.77194,-0.72209 -1.47125,-1.46138 -2.09791,-2.21783 -0.62666,-0.75646 -1.17767,-1.52645 -1.65303,-2.30997 -0.47536,-0.78352 -0.87277,-1.57683 -1.19225,-2.37988 -0.31946,-0.80304 -0.55944,-1.61197 -0.71996,-2.42681 C 127.08026,152.63559 127.00001,151.81879 127,151 c 1e-5,-0.81877 0.0803,-1.63559 0.24077,-2.45042 0.16051,-0.81484 0.40049,-1.6238 0.71995,-2.42685 0.31948,-0.80304 0.71689,-1.59633 1.19225,-2.37986 0.47536,-0.78352 1.02637,-1.55351 1.65303,-2.30998 0.62666,-0.75645 1.32597,-1.49573 2.09791,-2.21782 0.77195,-0.72209 1.61281,-1.42354 2.52259,-2.10434 0.90977,-0.68078 1.88411,-1.33764 2.92297,-1.97056 1.03887,-0.63294 2.13725,-1.23888 3.29518,-1.81784 1.15795,-0.57897 2.36985,-1.12816 3.6357,-1.6476 1.26585,-0.51943 2.57957,-1.00658 3.94113,-1.46147 1.36159,-0.45488 2.76447,-0.87532 4.20866,-1.2613 1.44422,-0.38597 2.92278,-0.73562 4.43567,-1.04896 1.51293,-0.31332 3.05291,-0.58883 4.61995,-0.82651 1.56705,-0.23768 3.15361,-0.43638 4.75971,-0.59612 1.60611,-0.15974 3.224,-0.27973 4.85368,-0.35999 1.62967,-0.0802 3.26329,-0.12037 4.90085,-0.12038 1.63756,1e-5 3.27118,0.0401 4.90085,0.12039 1.62968,0.0803 3.24756,0.20024 4.85365,0.35998 1.6061,0.15974 3.19266,0.35845 4.75972,0.59613 1.56703,0.23768 3.10701,0.51318 4.61992,0.8265 1.51291,0.31334 2.99147,0.66299 4.43568,1.04896 1.4442,0.38598 2.84708,0.80642 4.20867,1.2613 1.36159,0.45489 2.67531,0.94204 3.94118,1.46147 1.26585,0.51944 2.47773,1.06863 3.63566,1.6476 1.15795,0.57896 2.25633,1.1849 3.2952,1.81784 1.03886,0.63292 2.01317,1.28978 2.92294,1.97056 0.90978,0.6808 1.75064,1.38225 2.52258,2.10434 0.77195,0.72209 1.47124,1.46137 2.0979,2.21782 0.62667,0.75647 1.17769,1.52646 1.65305,2.30998 0.47536,0.78353 0.87276,1.57682 1.19223,2.37986 0.3195,0.80305 0.55951,1.61201 0.72002,2.42685 0.1605,0.81483 0.24077,1.63165 0.24075,2.45042 z"
             style="fill:none;stroke:#000000;stroke-width:1;stroke-linecap:butt;stroke-linejoin:miter;stroke-miterlimit:10;stroke-dasharray:none;stroke-opacity:1"
             id="path112" />
        </g>
        <g
           id="g114"
           transform="scale(3.0031822)">
          <text
             xml:space="preserve"
             transform="translate(137.96875,155)"
             style="font-variant:normal;font-weight:normal;font-size:12px;font-family:ArialMT;-inkscape-font-specification:ArialMT;writing-mode:lr-tb;fill:#000000;fill-opacity:1;fill-rule:nonzero;stroke:none"
             id="text118"><tspan
               x="0 8.6660156 15.339844 22.013672 28.6875 32.683594 36.017578 42.691406 49.365234 56.039062 58.705078 65.378906 72.052734"
               y="0"
               sodipodi:role="line"
               id="tspan116">Repor bebidas</tspan></text>
        </g>
        <g
           id="g120"
           transform="matrix(3.0031822,0,0,3.0031822,1.5015911,1.5015911)">
          <path
             d="m 227,270.5 h 12 v 1 h -12 m 24,-1 h 12 v 1 h -12 m 24,-1 h 12 v 1 h -12 m 24,-1 h 11.63 v 1 H 299"
             style="fill:#000000;fill-opacity:1;fill-rule:nonzero;stroke:none"
             id="path122" />
          <path
             d="m 315.88,271 -7,3.5 1.75,-3.5 -1.75,-3.5 z"
             style="fill:#000000;fill-opacity:1;fill-rule:nonzero;stroke:none"
             id="path124" />
          <path
             d="m 315.88,271 -7,3.5 1.75,-3.5 -1.75,-3.5 z"
             style="fill:none;stroke:#000000;stroke-width:1;stroke-linecap:butt;stroke-linejoin:miter;stroke-miterlimit:10;stroke-dasharray:none;stroke-opacity:1"
             id="path126" />
        </g>
        <g
           id="g128"
           transform="scale(3.0031822)">
          <path
             d="m 242,276 h 61 v 13 h -61 z"
             style="fill:#ffffff;fill-opacity:1;fill-rule:nonzero;stroke:none"
             id="path130" />
          <text
             xml:space="preserve"
             transform="translate(242.21875,286)"
             style="font-variant:normal;font-weight:normal;font-size:11px;font-family:ArialMT;-inkscape-font-specification:ArialMT;writing-mode:lr-tb;fill:#000000;fill-opacity:1;fill-rule:nonzero;stroke:none"
             id="text134"><tspan
               x="0 6.4238281 12.847656 15.291504 21.40918 26.90918 29.353027 35.470703 41.588379 47.706055 54.129883"
               y="0"
               sodipodi:role="line"
               id="tspan132">&lt;&lt;include&gt;&gt;</tspan></text>
        </g>
        <g
           id="g136"
           transform="matrix(3.0031822,0,0,3.0031822,1.5015911,1.5015911)">
          <path
             d="m 227,271 c 2e-5,0.81882 -0.0803,1.63562 -0.24075,2.45044 -0.16051,0.81482 -0.40052,1.62375 -0.72,2.42679 -0.31948,0.80307 -0.71689,1.59634 -1.19225,2.37985 -0.47536,0.78354 -1.02638,1.55353 -1.65305,2.30997 -0.62666,0.75647 -1.32595,1.49572 -2.0979,2.2178 -0.77194,0.72214 -1.6128,1.42359 -2.52258,2.10437 -0.90977,0.68082 -1.88408,1.33768 -2.92294,1.97058 -1.03887,0.63294 -2.13725,1.23889 -3.2952,1.81784 -1.15793,0.57901 -2.36981,1.12821 -3.63566,1.64759 -1.26587,0.51944 -2.57959,1.00659 -3.94118,1.46145 -1.36159,0.4549 -2.76447,0.87534 -4.20867,1.26129 -1.44421,0.38599 -2.92277,0.73563 -4.43568,1.04895 -1.51291,0.31336 -3.05289,0.58887 -4.61992,0.82654 -1.56706,0.23767 -3.15362,0.43637 -4.75972,0.59613 -1.60609,0.15976 -3.22397,0.27976 -4.85365,0.36005 C 180.27118,295.95987 178.63756,296 177,296 c -1.63756,0 -3.27118,-0.0401 -4.90085,-0.12036 -1.62968,-0.0803 -3.24757,-0.20029 -4.85368,-0.36005 -1.6061,-0.15976 -3.19266,-0.35846 -4.75971,-0.59613 -1.56704,-0.23767 -3.10702,-0.51318 -4.61995,-0.82654 -1.51289,-0.31332 -2.99145,-0.66296 -4.43565,-1.04895 -1.4442,-0.38595 -2.84709,-0.80639 -4.20868,-1.26129 -1.36156,-0.45486 -2.67528,-0.94198 -3.94113,-1.46142 -1.26585,-0.51941 -2.47775,-1.06861 -3.6357,-1.64762 -1.15793,-0.57895 -2.25631,-1.1849 -3.29518,-1.81784 -1.03886,-0.6329 -2.0132,-1.28976 -2.92297,-1.97058 -0.90978,-0.68078 -1.75064,-1.38223 -2.52259,-2.10434 -0.77194,-0.72207 -1.47125,-1.46136 -2.09791,-2.21783 -0.62666,-0.75644 -1.17767,-1.52643 -1.65303,-2.30997 -0.47536,-0.78351 -0.87277,-1.57678 -1.19225,-2.37985 -0.31946,-0.80304 -0.55944,-1.61197 -0.71996,-2.42679 C 127.08026,272.63562 127.00001,271.81882 127,271 c 1e-5,-0.81876 0.0803,-1.63559 0.24077,-2.45044 0.16051,-0.81485 0.40049,-1.62378 0.71995,-2.42685 0.31948,-0.80304 0.71689,-1.59631 1.19225,-2.37985 0.47536,-0.78354 1.02637,-1.55353 1.65303,-2.30997 0.62666,-0.75644 1.32597,-1.49573 2.09791,-2.21783 0.77195,-0.72211 1.61281,-1.42356 2.52259,-2.10434 0.90977,-0.68079 1.88411,-1.33763 2.92297,-1.97055 1.03887,-0.63292 2.13725,-1.23888 3.29518,-1.81786 1.15795,-0.57896 2.36985,-1.12816 3.6357,-1.64758 1.26585,-0.51943 2.57957,-1.00659 3.94113,-1.46149 1.36159,-0.45488 2.76447,-0.8753 4.20866,-1.26127 1.44422,-0.38598 2.92278,-0.73565 4.43567,-1.04899 1.51293,-0.3133 3.05291,-0.58882 4.61995,-0.8265 1.56705,-0.23767 3.15361,-0.43637 4.75971,-0.59612 1.60611,-0.15971 3.224,-0.27971 4.85368,-0.35995 1.62967,-0.0803 3.26329,-0.12039 4.90085,-0.12041 1.63756,2e-5 3.27118,0.0402 4.90085,0.12039 1.62968,0.0803 3.24756,0.20026 4.85365,0.35997 1.6061,0.15975 3.19266,0.35845 4.75972,0.59612 1.56703,0.23768 3.10701,0.5132 4.61992,0.8265 1.51291,0.31334 2.99147,0.66301 4.43568,1.04899 1.4442,0.38597 2.84708,0.80639 4.20867,1.26127 1.36159,0.4549 2.67531,0.94206 3.94118,1.46149 1.26585,0.51942 2.47773,1.06862 3.63566,1.64758 1.15795,0.57898 2.25633,1.18494 3.2952,1.81786 1.03886,0.63292 2.01317,1.28976 2.92294,1.97055 0.90978,0.68078 1.75064,1.38223 2.52258,2.10434 0.77195,0.7221 1.47124,1.46139 2.0979,2.21783 0.62667,0.75644 1.17769,1.52643 1.65305,2.30997 0.47536,0.78354 0.87276,1.57681 1.19223,2.37985 0.3195,0.80307 0.55951,1.612 0.72002,2.42685 0.1605,0.81485 0.24077,1.63168 0.24075,2.45044 z"
             style="fill:#ffffff;fill-opacity:1;fill-rule:nonzero;stroke:none"
             id="path138" />
          <path
             d="m 227,271 c 2e-5,0.81882 -0.0803,1.63562 -0.24075,2.45044 -0.16051,0.81482 -0.40052,1.62375 -0.72,2.42679 -0.31948,0.80307 -0.71689,1.59634 -1.19225,2.37985 -0.47536,0.78354 -1.02638,1.55353 -1.65305,2.30997 -0.62666,0.75647 -1.32595,1.49572 -2.0979,2.2178 -0.77194,0.72214 -1.6128,1.42359 -2.52258,2.10437 -0.90977,0.68082 -1.88408,1.33768 -2.92294,1.97058 -1.03887,0.63294 -2.13725,1.23889 -3.2952,1.81784 -1.15793,0.57901 -2.36981,1.12821 -3.63566,1.64759 -1.26587,0.51944 -2.57959,1.00659 -3.94118,1.46145 -1.36159,0.4549 -2.76447,0.87534 -4.20867,1.26129 -1.44421,0.38599 -2.92277,0.73563 -4.43568,1.04895 -1.51291,0.31336 -3.05289,0.58887 -4.61992,0.82654 -1.56706,0.23767 -3.15362,0.43637 -4.75972,0.59613 -1.60609,0.15976 -3.22397,0.27976 -4.85365,0.36005 C 180.27118,295.95987 178.63756,296 177,296 c -1.63756,0 -3.27118,-0.0401 -4.90085,-0.12036 -1.62968,-0.0803 -3.24757,-0.20029 -4.85368,-0.36005 -1.6061,-0.15976 -3.19266,-0.35846 -4.75971,-0.59613 -1.56704,-0.23767 -3.10702,-0.51318 -4.61995,-0.82654 -1.51289,-0.31332 -2.99145,-0.66296 -4.43565,-1.04895 -1.4442,-0.38595 -2.84709,-0.80639 -4.20868,-1.26129 -1.36156,-0.45486 -2.67528,-0.94198 -3.94113,-1.46142 -1.26585,-0.51941 -2.47775,-1.06861 -3.6357,-1.64762 -1.15793,-0.57895 -2.25631,-1.1849 -3.29518,-1.81784 -1.03886,-0.6329 -2.0132,-1.28976 -2.92297,-1.97058 -0.90978,-0.68078 -1.75064,-1.38223 -2.52259,-2.10434 -0.77194,-0.72207 -1.47125,-1.46136 -2.09791,-2.21783 -0.62666,-0.75644 -1.17767,-1.52643 -1.65303,-2.30997 -0.47536,-0.78351 -0.87277,-1.57678 -1.19225,-2.37985 -0.31946,-0.80304 -0.55944,-1.61197 -0.71996,-2.42679 C 127.08026,272.63562 127.00001,271.81882 127,271 c 1e-5,-0.81876 0.0803,-1.63559 0.24077,-2.45044 0.16051,-0.81485 0.40049,-1.62378 0.71995,-2.42685 0.31948,-0.80304 0.71689,-1.59631 1.19225,-2.37985 0.47536,-0.78354 1.02637,-1.55353 1.65303,-2.30997 0.62666,-0.75644 1.32597,-1.49573 2.09791,-2.21783 0.77195,-0.72211 1.61281,-1.42356 2.52259,-2.10434 0.90977,-0.68079 1.88411,-1.33763 2.92297,-1.97055 1.03887,-0.63292 2.13725,-1.23888 3.29518,-1.81786 1.15795,-0.57896 2.36985,-1.12816 3.6357,-1.64758 1.26585,-0.51943 2.57957,-1.00659 3.94113,-1.46149 1.36159,-0.45488 2.76447,-0.8753 4.20866,-1.26127 1.44422,-0.38598 2.92278,-0.73565 4.43567,-1.04899 1.51293,-0.3133 3.05291,-0.58882 4.61995,-0.8265 1.56705,-0.23767 3.15361,-0.43637 4.75971,-0.59612 1.60611,-0.15971 3.224,-0.27971 4.85368,-0.35995 1.62967,-0.0803 3.26329,-0.12039 4.90085,-0.12041 1.63756,2e-5 3.27118,0.0402 4.90085,0.12039 1.62968,0.0803 3.24756,0.20026 4.85365,0.35997 1.6061,0.15975 3.19266,0.35845 4.75972,0.59612 1.56703,0.23768 3.10701,0.5132 4.61992,0.8265 1.51291,0.31334 2.99147,0.66301 4.43568,1.04899 1.4442,0.38597 2.84708,0.80639 4.20867,1.26127 1.36159,0.4549 2.67531,0.94206 3.94118,1.46149 1.26585,0.51942 2.47773,1.06862 3.63566,1.64758 1.15795,0.57898 2.25633,1.18494 3.2952,1.81786 1.03886,0.63292 2.01317,1.28976 2.92294,1.97055 0.90978,0.68078 1.75064,1.38223 2.52258,2.10434 0.77195,0.7221 1.47124,1.46139 2.0979,2.21783 0.62667,0.75644 1.17769,1.52643 1.65305,2.30997 0.47536,0.78354 0.87276,1.57681 1.19223,2.37985 0.3195,0.80307 0.55951,1.612 0.72002,2.42685 0.1605,0.81485 0.24077,1.63168 0.24075,2.45044 z"
             style="fill:none;stroke:#000000;stroke-width:1;stroke-linecap:butt;stroke-linejoin:miter;stroke-miterlimit:10;stroke-dasharray:none;stroke-opacity:1"
             id="path140" />
        </g>
        <g
           id="g142"
           transform="scale(3.0031822)">
          <text
             xml:space="preserve"
             transform="translate(135.96875,275)"
             style="font-variant:normal;font-weight:normal;font-size:12px;font-family:ArialMT;-inkscape-font-specification:ArialMT;writing-mode:lr-tb;fill:#000000;fill-opacity:1;fill-rule:nonzero;stroke:none"
             id="text146"><tspan
               x="0 8.6660156 15.339844 18.673828 21.339844 25.335938 32.009766 36.005859 39.339844 46.013672 48.679688 55.353516 62.027344 68.701172 71.367188 75.363281"
               y="0"
               sodipodi:role="line"
               id="tspan144">Retirar dinheiro</tspan></text>
        </g>
        <g
           id="g148"
           transform="matrix(3.0031822,0,0,3.0031822,1.5015911,1.5015911)">
          <path
             d="m 67,151 66.35001,94.78"
             style="fill:none;stroke:#000000;stroke-width:1;stroke-linecap:butt;stroke-linejoin:miter;stroke-miterlimit:10;stroke-dasharray:none;stroke-opacity:1"
             id="path150" />
          <path
             d="m 136.36,250.08 -6.88,-3.72 3.87001,-0.58 1.86,-3.44 z"
             style="fill:#000000;fill-opacity:1;fill-rule:nonzero;stroke:none"
             id="path152" />
          <path
             d="m 136.36,250.08 -6.88,-3.72 3.87001,-0.58 1.86,-3.44 z"
             style="fill:none;stroke:#000000;stroke-width:1;stroke-linecap:butt;stroke-linejoin:miter;stroke-miterlimit:10;stroke-dasharray:none;stroke-opacity:1"
             id="path154" />
          <path
             d="m 67,271 65.19,-98.59"
             style="fill:none;stroke:#000000;stroke-width:1;stroke-linecap:butt;stroke-linejoin:miter;stroke-miterlimit:10;stroke-dasharray:none;stroke-opacity:1"
             id="path156" />
          <path
             d="m 135.08,168.03 -0.94,7.77 -1.95,-3.39 -3.89,-0.47 z"
             style="fill:#000000;fill-opacity:1;fill-rule:nonzero;stroke:none"
             id="path158" />
          <path
             d="m 135.08,168.03 -0.94,7.77 -1.95,-3.39 -3.89,-0.47 z"
             style="fill:none;stroke:#000000;stroke-width:1;stroke-linecap:butt;stroke-linejoin:miter;stroke-miterlimit:10;stroke-dasharray:none;stroke-opacity:1"
             id="path160" />
          <path
             d="m 417,151 c 0,0.81879 -0.0803,1.63559 -0.24078,2.45042 -0.1605,0.81484 -0.40049,1.62377 -0.71997,2.42681 -0.31946,0.80305 -0.71686,1.59636 -1.19223,2.37988 -0.47538,0.78352 -1.0264,1.55351 -1.65308,2.30997 -0.62665,0.75645 -1.32593,1.49574 -2.09787,2.21783 -0.77197,0.72211 -1.61285,1.42356 -2.52264,2.10434 -0.90976,0.6808 -1.88407,1.33766 -2.92292,1.9706 -1.03885,0.63292 -2.13727,1.23886 -3.29519,1.81782 -1.15793,0.57897 -2.36979,1.12818 -3.63562,1.6476 -1.26587,0.51943 -2.57959,1.00659 -3.9412,1.46147 -1.3616,0.4549 -2.76449,0.87532 -4.20868,1.26129 -1.44421,0.38598 -2.92279,0.73563 -4.4357,1.04895 -1.5129,0.31334 -3.05285,0.58884 -4.61987,0.82653 -1.56708,0.23768 -3.15365,0.43638 -4.75976,0.59611 -1.60605,0.15975 -3.22394,0.27974 -4.85361,0.35999 C 370.27121,175.95987 368.63757,176 367,176 c -1.63754,0 -3.27118,-0.0401 -4.90088,-0.12039 -1.6297,-0.0803 -3.24759,-0.20024 -4.8537,-0.35999 -1.60608,-0.15973 -3.19266,-0.35844 -4.7597,-0.59613 -1.56705,-0.23767 -3.10703,-0.51317 -4.61994,-0.82651 -1.51291,-0.31332 -2.99145,-0.66297 -4.43567,-1.04895 -1.44421,-0.38597 -2.8471,-0.80639 -4.20867,-1.26129 -1.36158,-0.45488 -2.6753,-0.94204 -3.94114,-1.46147 -1.26583,-0.51942 -2.47775,-1.06863 -3.63568,-1.6476 -1.15793,-0.57896 -2.25631,-1.1849 -3.29516,-1.81782 -1.03888,-0.63294 -2.01322,-1.2898 -2.92298,-1.9706 -0.90976,-0.68078 -1.75061,-1.38223 -2.52255,-2.10434 -0.77197,-0.72209 -1.47128,-1.46138 -2.09796,-2.21783 -0.62668,-0.75646 -1.17767,-1.52645 -1.65302,-2.30997 -0.47537,-0.78352 -0.87277,-1.57683 -1.19226,-2.37988 -0.31945,-0.80304 -0.55944,-1.61197 -0.71994,-2.42681 C 317.08026,152.63559 317,151.81879 317,151 c 0,-0.81877 0.0803,-1.63559 0.24075,-2.45042 0.1605,-0.81484 0.40049,-1.6238 0.71994,-2.42685 0.31949,-0.80304 0.71689,-1.59633 1.19226,-2.37986 0.47535,-0.78352 1.02634,-1.55351 1.65302,-2.30998 0.62668,-0.75645 1.32599,-1.49573 2.09796,-2.21782 0.77194,-0.72209 1.61279,-1.42354 2.52255,-2.10434 0.90976,-0.68078 1.8841,-1.33764 2.92298,-1.97056 1.03885,-0.63294 2.13723,-1.23888 3.29516,-1.81784 1.15793,-0.57897 2.36985,-1.12816 3.63568,-1.6476 1.26584,-0.51943 2.57956,-1.00658 3.94111,-1.46147 1.3616,-0.45488 2.76449,-0.87532 4.20867,-1.2613 1.44425,-0.38597 2.92279,-0.73562 4.4357,-1.04896 1.51291,-0.31332 3.05292,-0.58883 4.61997,-0.82651 1.56705,-0.23768 3.15362,-0.43638 4.7597,-0.59612 1.60611,-0.15974 3.224,-0.27973 4.85367,-0.35999 1.6297,-0.0802 3.26334,-0.12037 4.90088,-0.12038 1.63757,1e-5 3.27121,0.0401 4.90088,0.12039 1.62967,0.0803 3.24756,0.20024 4.85364,0.35998 1.60611,0.15974 3.19268,0.35845 4.75973,0.59613 1.56705,0.23768 3.10703,0.51318 4.61991,0.8265 1.5129,0.31334 2.99148,0.66299 4.43566,1.04896 1.44419,0.38598 2.84708,0.80642 4.20868,1.2613 1.36161,0.45489 2.67533,0.94204 3.94117,1.46147 1.26583,0.51944 2.47772,1.06863 3.63565,1.6476 1.15792,0.57896 2.25634,1.1849 3.29519,1.81784 1.03885,0.63292 2.01316,1.28978 2.92292,1.97056 0.90979,0.6808 1.75067,1.38225 2.52264,2.10434 0.77194,0.72209 1.47122,1.46137 2.09787,2.21782 0.62668,0.75647 1.1777,1.52646 1.65311,2.30998 0.47534,0.78353 0.87274,1.57682 1.1922,2.37986 0.31948,0.80305 0.55947,1.61201 0.71997,2.42685 C 416.91974,149.36441 417,150.18123 417,151 Z"
             style="fill:#ffffff;fill-opacity:1;fill-rule:nonzero;stroke:none"
             id="path162" />
          <path
             d="m 417,151 c 0,0.81879 -0.0803,1.63559 -0.24078,2.45042 -0.1605,0.81484 -0.40049,1.62377 -0.71997,2.42681 -0.31946,0.80305 -0.71686,1.59636 -1.19223,2.37988 -0.47538,0.78352 -1.0264,1.55351 -1.65308,2.30997 -0.62665,0.75645 -1.32593,1.49574 -2.09787,2.21783 -0.77197,0.72211 -1.61285,1.42356 -2.52264,2.10434 -0.90976,0.6808 -1.88407,1.33766 -2.92292,1.9706 -1.03885,0.63292 -2.13727,1.23886 -3.29519,1.81782 -1.15793,0.57897 -2.36979,1.12818 -3.63562,1.6476 -1.26587,0.51943 -2.57959,1.00659 -3.9412,1.46147 -1.3616,0.4549 -2.76449,0.87532 -4.20868,1.26129 -1.44421,0.38598 -2.92279,0.73563 -4.4357,1.04895 -1.5129,0.31334 -3.05285,0.58884 -4.61987,0.82653 -1.56708,0.23768 -3.15365,0.43638 -4.75976,0.59611 -1.60605,0.15975 -3.22394,0.27974 -4.85361,0.35999 C 370.27121,175.95987 368.63757,176 367,176 c -1.63754,0 -3.27118,-0.0401 -4.90088,-0.12039 -1.6297,-0.0803 -3.24759,-0.20024 -4.8537,-0.35999 -1.60608,-0.15973 -3.19266,-0.35844 -4.7597,-0.59613 -1.56705,-0.23767 -3.10703,-0.51317 -4.61994,-0.82651 -1.51291,-0.31332 -2.99145,-0.66297 -4.43567,-1.04895 -1.44421,-0.38597 -2.8471,-0.80639 -4.20867,-1.26129 -1.36158,-0.45488 -2.6753,-0.94204 -3.94114,-1.46147 -1.26583,-0.51942 -2.47775,-1.06863 -3.63568,-1.6476 -1.15793,-0.57896 -2.25631,-1.1849 -3.29516,-1.81782 -1.03888,-0.63294 -2.01322,-1.2898 -2.92298,-1.9706 -0.90976,-0.68078 -1.75061,-1.38223 -2.52255,-2.10434 -0.77197,-0.72209 -1.47128,-1.46138 -2.09796,-2.21783 -0.62668,-0.75646 -1.17767,-1.52645 -1.65302,-2.30997 -0.47537,-0.78352 -0.87277,-1.57683 -1.19226,-2.37988 -0.31945,-0.80304 -0.55944,-1.61197 -0.71994,-2.42681 C 317.08026,152.63559 317,151.81879 317,151 c 0,-0.81877 0.0803,-1.63559 0.24075,-2.45042 0.1605,-0.81484 0.40049,-1.6238 0.71994,-2.42685 0.31949,-0.80304 0.71689,-1.59633 1.19226,-2.37986 0.47535,-0.78352 1.02634,-1.55351 1.65302,-2.30998 0.62668,-0.75645 1.32599,-1.49573 2.09796,-2.21782 0.77194,-0.72209 1.61279,-1.42354 2.52255,-2.10434 0.90976,-0.68078 1.8841,-1.33764 2.92298,-1.97056 1.03885,-0.63294 2.13723,-1.23888 3.29516,-1.81784 1.15793,-0.57897 2.36985,-1.12816 3.63568,-1.6476 1.26584,-0.51943 2.57956,-1.00658 3.94111,-1.46147 1.3616,-0.45488 2.76449,-0.87532 4.20867,-1.2613 1.44425,-0.38597 2.92279,-0.73562 4.4357,-1.04896 1.51291,-0.31332 3.05292,-0.58883 4.61997,-0.82651 1.56705,-0.23768 3.15362,-0.43638 4.7597,-0.59612 1.60611,-0.15974 3.224,-0.27973 4.85367,-0.35999 1.6297,-0.0802 3.26334,-0.12037 4.90088,-0.12038 1.63757,1e-5 3.27121,0.0401 4.90088,0.12039 1.62967,0.0803 3.24756,0.20024 4.85364,0.35998 1.60611,0.15974 3.19268,0.35845 4.75973,0.59613 1.56705,0.23768 3.10703,0.51318 4.61991,0.8265 1.5129,0.31334 2.99148,0.66299 4.43566,1.04896 1.44419,0.38598 2.84708,0.80642 4.20868,1.2613 1.36161,0.45489 2.67533,0.94204 3.94117,1.46147 1.26583,0.51944 2.47772,1.06863 3.63565,1.6476 1.15792,0.57896 2.25634,1.1849 3.29519,1.81784 1.03885,0.63292 2.01316,1.28978 2.92292,1.97056 0.90979,0.6808 1.75067,1.38225 2.52264,2.10434 0.77194,0.72209 1.47122,1.46137 2.09787,2.21782 0.62668,0.75647 1.1777,1.52646 1.65311,2.30998 0.47534,0.78353 0.87274,1.57682 1.1922,2.37986 0.31948,0.80305 0.55947,1.61201 0.71997,2.42685 C 416.91974,149.36441 417,150.18123 417,151 Z"
             style="fill:none;stroke:#000000;stroke-width:1;stroke-linecap:butt;stroke-linejoin:miter;stroke-miterlimit:10;stroke-dasharray:none;stroke-opacity:1"
             id="path164" />
        </g>
        <g
           id="g166"
           transform="scale(3.0031822)">
          <text
             xml:space="preserve"
             transform="translate(329.64063,155)"
             style="font-variant:normal;font-weight:normal;font-size:12px;font-family:ArialMT;-inkscape-font-specification:ArialMT;writing-mode:lr-tb;fill:#000000;fill-opacity:1;fill-rule:nonzero;stroke:none"
             id="text170"><tspan
               x="0 8.0039062 14.677734 18.673828 21.339844 25.335938 28.669922"
               y="0"
               sodipodi:role="line"
               id="tspan168">Abrir mquina</tspan></text>
        </g>
        <g
           id="g172"
           transform="matrix(3.0031822,0,0,3.0031822,1.5015911,1.5015911)">
          <path
             d="m 417,271 c 0,0.81882 -0.0803,1.63562 -0.24078,2.45044 -0.1605,0.81482 -0.40049,1.62375 -0.71997,2.42679 -0.31946,0.80307 -0.71686,1.59634 -1.19223,2.37985 -0.47538,0.78354 -1.0264,1.55353 -1.65308,2.30997 -0.62665,0.75647 -1.32593,1.49572 -2.09787,2.2178 -0.77197,0.72214 -1.61285,1.42359 -2.52264,2.10437 -0.90976,0.68082 -1.88407,1.33768 -2.92292,1.97058 -1.03885,0.63294 -2.13727,1.23889 -3.29519,1.81784 -1.15793,0.57901 -2.36979,1.12821 -3.63562,1.64759 -1.26587,0.51944 -2.57959,1.00659 -3.9412,1.46145 -1.3616,0.4549 -2.76449,0.87534 -4.20868,1.26129 -1.44421,0.38599 -2.92279,0.73563 -4.4357,1.04895 -1.5129,0.31336 -3.05285,0.58887 -4.61987,0.82654 -1.56708,0.23767 -3.15365,0.43637 -4.75976,0.59613 -1.60605,0.15976 -3.22394,0.27976 -4.85361,0.36005 C 370.27121,295.95987 368.63757,296 367,296 c -1.63754,0 -3.27118,-0.0401 -4.90088,-0.12036 -1.6297,-0.0803 -3.24759,-0.20029 -4.8537,-0.36005 -1.60608,-0.15976 -3.19266,-0.35846 -4.7597,-0.59613 -1.56705,-0.23767 -3.10703,-0.51318 -4.61994,-0.82654 -1.51291,-0.31332 -2.99145,-0.66296 -4.43567,-1.04895 -1.44421,-0.38595 -2.8471,-0.80639 -4.20867,-1.26129 -1.36158,-0.45486 -2.6753,-0.94198 -3.94114,-1.46142 -1.26583,-0.51941 -2.47775,-1.06861 -3.63568,-1.64762 -1.15793,-0.57895 -2.25631,-1.1849 -3.29516,-1.81784 -1.03888,-0.6329 -2.01322,-1.28976 -2.92298,-1.97058 -0.90976,-0.68078 -1.75061,-1.38223 -2.52255,-2.10434 -0.77197,-0.72207 -1.47128,-1.46136 -2.09796,-2.21783 -0.62668,-0.75644 -1.17767,-1.52643 -1.65302,-2.30997 -0.47537,-0.78351 -0.87277,-1.57678 -1.19226,-2.37985 -0.31945,-0.80304 -0.55944,-1.61197 -0.71994,-2.42679 C 317.08026,272.63562 317,271.81882 317,271 c 0,-0.81876 0.0803,-1.63559 0.24075,-2.45044 0.1605,-0.81485 0.40049,-1.62378 0.71994,-2.42685 0.31949,-0.80304 0.71689,-1.59631 1.19226,-2.37985 0.47535,-0.78354 1.02634,-1.55353 1.65302,-2.30997 0.62668,-0.75644 1.32599,-1.49573 2.09796,-2.21783 0.77194,-0.72211 1.61279,-1.42356 2.52255,-2.10434 0.90976,-0.68079 1.8841,-1.33763 2.92298,-1.97055 1.03885,-0.63292 2.13723,-1.23888 3.29516,-1.81786 1.15793,-0.57896 2.36985,-1.12816 3.63568,-1.64758 1.26584,-0.51943 2.57956,-1.00659 3.94111,-1.46149 1.3616,-0.45488 2.76449,-0.8753 4.20867,-1.26127 1.44425,-0.38598 2.92279,-0.73565 4.4357,-1.04899 1.51291,-0.3133 3.05292,-0.58882 4.61997,-0.8265 1.56705,-0.23767 3.15362,-0.43637 4.7597,-0.59612 1.60611,-0.15971 3.224,-0.27971 4.85367,-0.35995 1.6297,-0.0803 3.26334,-0.12039 4.90088,-0.12041 1.63757,2e-5 3.27121,0.0402 4.90088,0.12039 1.62967,0.0803 3.24756,0.20026 4.85364,0.35997 1.60611,0.15975 3.19268,0.35845 4.75973,0.59612 1.56705,0.23768 3.10703,0.5132 4.61991,0.8265 1.5129,0.31334 2.99148,0.66301 4.43566,1.04899 1.44419,0.38597 2.84708,0.80639 4.20868,1.26127 1.36161,0.4549 2.67533,0.94206 3.94117,1.46149 1.26583,0.51942 2.47772,1.06862 3.63565,1.64758 1.15792,0.57898 2.25634,1.18494 3.29519,1.81786 1.03885,0.63292 2.01316,1.28976 2.92292,1.97055 0.90979,0.68078 1.75067,1.38223 2.52264,2.10434 0.77194,0.7221 1.47122,1.46139 2.09787,2.21783 0.62668,0.75644 1.1777,1.52643 1.65311,2.30997 0.47534,0.78354 0.87274,1.57681 1.1922,2.37985 0.31948,0.80307 0.55947,1.612 0.71997,2.42685 C 416.91974,269.36441 417,270.18124 417,271 Z"
             style="fill:#ffffff;fill-opacity:1;fill-rule:nonzero;stroke:none"
             id="path174" />
          <path
             d="m 417,271 c 0,0.81882 -0.0803,1.63562 -0.24078,2.45044 -0.1605,0.81482 -0.40049,1.62375 -0.71997,2.42679 -0.31946,0.80307 -0.71686,1.59634 -1.19223,2.37985 -0.47538,0.78354 -1.0264,1.55353 -1.65308,2.30997 -0.62665,0.75647 -1.32593,1.49572 -2.09787,2.2178 -0.77197,0.72214 -1.61285,1.42359 -2.52264,2.10437 -0.90976,0.68082 -1.88407,1.33768 -2.92292,1.97058 -1.03885,0.63294 -2.13727,1.23889 -3.29519,1.81784 -1.15793,0.57901 -2.36979,1.12821 -3.63562,1.64759 -1.26587,0.51944 -2.57959,1.00659 -3.9412,1.46145 -1.3616,0.4549 -2.76449,0.87534 -4.20868,1.26129 -1.44421,0.38599 -2.92279,0.73563 -4.4357,1.04895 -1.5129,0.31336 -3.05285,0.58887 -4.61987,0.82654 -1.56708,0.23767 -3.15365,0.43637 -4.75976,0.59613 -1.60605,0.15976 -3.22394,0.27976 -4.85361,0.36005 C 370.27121,295.95987 368.63757,296 367,296 c -1.63754,0 -3.27118,-0.0401 -4.90088,-0.12036 -1.6297,-0.0803 -3.24759,-0.20029 -4.8537,-0.36005 -1.60608,-0.15976 -3.19266,-0.35846 -4.7597,-0.59613 -1.56705,-0.23767 -3.10703,-0.51318 -4.61994,-0.82654 -1.51291,-0.31332 -2.99145,-0.66296 -4.43567,-1.04895 -1.44421,-0.38595 -2.8471,-0.80639 -4.20867,-1.26129 -1.36158,-0.45486 -2.6753,-0.94198 -3.94114,-1.46142 -1.26583,-0.51941 -2.47775,-1.06861 -3.63568,-1.64762 -1.15793,-0.57895 -2.25631,-1.1849 -3.29516,-1.81784 -1.03888,-0.6329 -2.01322,-1.28976 -2.92298,-1.97058 -0.90976,-0.68078 -1.75061,-1.38223 -2.52255,-2.10434 -0.77197,-0.72207 -1.47128,-1.46136 -2.09796,-2.21783 -0.62668,-0.75644 -1.17767,-1.52643 -1.65302,-2.30997 -0.47537,-0.78351 -0.87277,-1.57678 -1.19226,-2.37985 -0.31945,-0.80304 -0.55944,-1.61197 -0.71994,-2.42679 C 317.08026,272.63562 317,271.81882 317,271 c 0,-0.81876 0.0803,-1.63559 0.24075,-2.45044 0.1605,-0.81485 0.40049,-1.62378 0.71994,-2.42685 0.31949,-0.80304 0.71689,-1.59631 1.19226,-2.37985 0.47535,-0.78354 1.02634,-1.55353 1.65302,-2.30997 0.62668,-0.75644 1.32599,-1.49573 2.09796,-2.21783 0.77194,-0.72211 1.61279,-1.42356 2.52255,-2.10434 0.90976,-0.68079 1.8841,-1.33763 2.92298,-1.97055 1.03885,-0.63292 2.13723,-1.23888 3.29516,-1.81786 1.15793,-0.57896 2.36985,-1.12816 3.63568,-1.64758 1.26584,-0.51943 2.57956,-1.00659 3.94111,-1.46149 1.3616,-0.45488 2.76449,-0.8753 4.20867,-1.26127 1.44425,-0.38598 2.92279,-0.73565 4.4357,-1.04899 1.51291,-0.3133 3.05292,-0.58882 4.61997,-0.8265 1.56705,-0.23767 3.15362,-0.43637 4.7597,-0.59612 1.60611,-0.15971 3.224,-0.27971 4.85367,-0.35995 1.6297,-0.0803 3.26334,-0.12039 4.90088,-0.12041 1.63757,2e-5 3.27121,0.0402 4.90088,0.12039 1.62967,0.0803 3.24756,0.20026 4.85364,0.35997 1.60611,0.15975 3.19268,0.35845 4.75973,0.59612 1.56705,0.23768 3.10703,0.5132 4.61991,0.8265 1.5129,0.31334 2.99148,0.66301 4.43566,1.04899 1.44419,0.38597 2.84708,0.80639 4.20868,1.26127 1.36161,0.4549 2.67533,0.94206 3.94117,1.46149 1.26583,0.51942 2.47772,1.06862 3.63565,1.64758 1.15792,0.57898 2.25634,1.18494 3.29519,1.81786 1.03885,0.63292 2.01316,1.28976 2.92292,1.97055 0.90979,0.68078 1.75067,1.38223 2.52264,2.10434 0.77194,0.7221 1.47122,1.46139 2.09787,2.21783 0.62668,0.75644 1.1777,1.52643 1.65311,2.30997 0.47534,0.78354 0.87274,1.57681 1.1922,2.37985 0.31948,0.80307 0.55947,1.612 0.71997,2.42685 C 416.91974,269.36441 417,270.18124 417,271 Z"
             style="fill:none;stroke:#000000;stroke-width:1;stroke-linecap:butt;stroke-linejoin:miter;stroke-miterlimit:10;stroke-dasharray:none;stroke-opacity:1"
             id="path176" />
        </g>
        <g
           id="g178"
           transform="scale(3.0031822)">
          <text
             xml:space="preserve"
             transform="translate(323.64063,275)"
             style="font-variant:normal;font-weight:normal;font-size:12px;font-family:ArialMT;-inkscape-font-specification:ArialMT;writing-mode:lr-tb;fill:#000000;fill-opacity:1;fill-rule:nonzero;stroke:none"
             id="text182"><tspan
               x="0 7.3300781 14.003906 20.003906 26.677734 33.351562 37.347656"
               y="0"
               sodipodi:role="line"
               id="tspan180">Fechar mquina</tspan></text>
        </g>
        <g
           id="g184"
           transform="matrix(3.0031822,0,0,3.0031822,1.5015911,1.5015911)">
          <path
             d="m 225.14413,158.28726 8.7056,8.2591 -0.68826,0.72546 -8.7056,-8.25909 m 18.09946,15.79271 8.70561,8.25909 -0.68826,0.72546 -8.70561,-8.25909 m 18.09945,15.79271 8.7056,8.25909 -0.68823,0.72547 -8.7056,-8.2591 m 18.09943,15.79273 8.70559,8.25909 -0.68823,0.72546 -8.7056,-8.25909 m 18.09943,15.79271 8.7056,8.25909 -0.68824,0.72547 -8.70559,-8.2591 m 18.09942,15.79271 6.724,6.37912 -0.68823,0.72547 -6.724,-6.37912"
             style="fill:#000000;fill-opacity:1;fill-rule:nonzero;stroke:none"
             id="path186" />
          <path
             d="m 322.39001,251.23 -7.49002,-2.28 3.68,-1.33 1.14001,-3.75 z"
             style="fill:#000000;fill-opacity:1;fill-rule:nonzero;stroke:none"
             id="path188" />
          <path
             d="m 322.39001,251.23 -7.49002,-2.28 3.68,-1.33 1.14001,-3.75 z"
             style="fill:none;stroke:#000000;stroke-width:1;stroke-linecap:butt;stroke-linejoin:miter;stroke-miterlimit:10;stroke-dasharray:none;stroke-opacity:1"
             id="path190" />
        </g>
        <g
           id="g192"
           transform="scale(3.0031822)">
          <path
             d="m 218,176 h 61 v 13 h -61 z"
             style="fill:#ffffff;fill-opacity:1;fill-rule:nonzero;stroke:none"
             id="path194" />
          <text
             xml:space="preserve"
             transform="translate(218.21875,186)"
             style="font-variant:normal;font-weight:normal;font-size:11px;font-family:ArialMT;-inkscape-font-specification:ArialMT;writing-mode:lr-tb;fill:#000000;fill-opacity:1;fill-rule:nonzero;stroke:none"
             id="text198"><tspan
               x="0 6.4238281 12.847656 15.291504 21.40918 26.90918 29.353027 35.470703 41.588379 47.706055 54.129883"
               y="0"
               sodipodi:role="line"
               id="tspan196">&lt;&lt;include&gt;&gt;</tspan></text>
        </g>
        <g
           id="g200"
           transform="matrix(3.0031822,0,0,3.0031822,1.5015911,1.5015911)">
          <path
             d="m 212.88797,246.60931 9.3765,-7.48875 0.62405,0.78137 -9.3765,7.48876 m 18.12893,-15.75888 9.37649,-7.48876 0.62405,0.78137 -9.37649,7.48876 m 18.12894,-15.75888 9.37648,-7.48876 0.62408,0.78137 -9.37651,7.48876 m 18.12889,-15.75888 9.3765,-7.48874 0.62408,0.78137 -9.37649,7.48874 m 18.1289,-15.75888 9.3765,-7.48874 0.62408,0.78137 -9.37649,7.48874 m 18.1289,-15.75888 8.7551,-6.99246 0.62408,0.78137 -8.75509,6.99246"
             style="fill:#000000;fill-opacity:1;fill-rule:nonzero;stroke:none"
             id="path202" />
          <path
             d="M 319.82999,161.85001 316.54001,168.95 315.72,165.11999 312.17001,163.48 Z"
             style="fill:#000000;fill-opacity:1;fill-rule:nonzero;stroke:none"
             id="path204" />
          <path
             d="M 319.82999,161.85001 316.54001,168.95 315.72,165.11999 312.17001,163.48 Z"
             style="fill:none;stroke:#000000;stroke-width:1;stroke-linecap:butt;stroke-linejoin:miter;stroke-miterlimit:10;stroke-dasharray:none;stroke-opacity:1"
             id="path206" />
        </g>
        <g
           id="g208"
           transform="scale(3.0031822)">
          <path
             d="m 218,216 h 61 v 13 h -61 z"
             style="fill:#ffffff;fill-opacity:1;fill-rule:nonzero;stroke:none"
             id="path210" />
          <text
             xml:space="preserve"
             transform="translate(218.21875,226)"
             style="font-variant:normal;font-weight:normal;font-size:11px;font-family:ArialMT;-inkscape-font-specification:ArialMT;writing-mode:lr-tb;fill:#000000;fill-opacity:1;fill-rule:nonzero;stroke:none"
             id="text214"><tspan
               x="0 6.4238281 12.847656 15.291504 21.40918 26.90918 29.353027 35.470703 41.588379 47.706055 54.129883"
               y="0"
               sodipodi:role="line"
               id="tspan212">&lt;&lt;include&gt;&gt;</tspan></text>
        </g>
      </g>
    </g>
  </g>
</svg>
